<svg enable-background="new 0 0 2048 2048" viewBox="0 0 2048 2048" xmlns="http://www.w3.org/2000/svg"><path d="m1025.59 1792h-3.86c-67.14 0-121.56-54.42-121.56-121.56v-38.71h246.98v38.71c0 67.14-54.43 121.56-121.56 121.56z" fill="#60b7ff"/><path d="m1462.83 949.48c0 112.82-42.54 215.71-112.47 293.49-28.37 31.55-48.26 69.4-57.93 110.03-7.95 33.41-38.12 56.8-72.46 56.8h-392.62c-34.35 0-64.52-23.39-72.46-56.8-9.66-40.62-29.56-78.48-57.93-110.03-69.92-77.78-112.48-180.66-112.48-293.49 0-242.56 196.63-439.17 439.17-439.17 242.55-.01 439.18 196.61 439.18 439.17z" fill="#ffd15c"/><path d="m1149.51 1660.09h-251.71c-44.18 0-80-35.82-80-80v-170.3h411.71v170.3c0 44.18-35.81 80-80 80z" fill="#c4e2ff"/><path d="m1227.67 1594.47h-408.02c-10.1 0-18.29-8.19-18.29-18.29s8.19-18.29 18.29-18.29h408.02c10.1 0 18.29 8.19 18.29 18.29-.01 10.1-8.19 18.29-18.29 18.29z" fill="#60b7ff"/><path d="m1227.67 1511.98h-408.02c-10.1 0-18.29-8.19-18.29-18.29s8.19-18.29 18.29-18.29h408.02c10.1 0 18.29 8.19 18.29 18.29s-8.19 18.29-18.29 18.29z" fill="#60b7ff"/><path d="m1048.38 1045.42v364.36h-48.76v-364.36c0-13.47 10.92-24.38 24.38-24.38s24.38 10.91 24.38 24.38z" fill="#e6bd52"/><g fill="#ffd15c"><path d="m1024 432.94c-13.47 0-24.38-10.92-24.38-24.38v-128.18c0-13.47 10.92-24.38 24.38-24.38 13.47 0 24.38 10.92 24.38 24.38v128.18c0 13.47-10.91 24.38-24.38 24.38z"/><path d="m753.4 505.46c-8.43 0-16.62-4.37-21.14-12.19l-64.09-111.01c-6.73-11.66-2.74-26.57 8.92-33.31 11.66-6.73 26.57-2.74 33.31 8.92l64.09 111.01c6.73 11.66 2.74 26.57-8.92 33.31-3.85 2.22-8.04 3.27-12.17 3.27z"/><path d="m555.24 703.58c-4.14 0-8.33-1.05-12.17-3.27l-111.01-64.09c-11.66-6.73-15.66-21.64-8.92-33.31 6.73-11.66 21.64-15.66 33.31-8.92l111.01 64.09c11.66 6.73 15.66 21.64 8.92 33.31-4.52 7.81-12.72 12.19-21.14 12.19z"/><path d="m482.75 974.2h-128.19c-13.47 0-24.38-10.92-24.38-24.38s10.92-24.38 24.38-24.38h128.18c13.47 0 24.38 10.92 24.38 24.38s-10.91 24.38-24.37 24.38z"/><path d="m444.27 1308.92c-8.43 0-16.62-4.37-21.14-12.19-6.73-11.66-2.74-26.57 8.92-33.3l111.01-64.09c11.66-6.74 26.57-2.74 33.31 8.92 6.73 11.66 2.74 26.57-8.92 33.3l-111.01 64.09c-3.84 2.22-8.03 3.27-12.17 3.27z"/><path d="m1603.73 1308.92c-4.14 0-8.33-1.05-12.17-3.27l-111.01-64.09c-11.66-6.73-15.66-21.64-8.92-33.3 6.73-11.66 21.64-15.66 33.3-8.92l111.01 64.09c11.66 6.73 15.66 21.64 8.92 33.3-4.51 7.82-12.71 12.19-21.13 12.19z"/><path d="m1693.44 974.2h-128.18c-13.47 0-24.38-10.92-24.38-24.38s10.92-24.38 24.38-24.38h128.18c13.47 0 24.38 10.92 24.38 24.38s-10.92 24.38-24.38 24.38z"/><path d="m1492.76 703.58c-8.43 0-16.62-4.37-21.14-12.19-6.73-11.66-2.74-26.57 8.92-33.31l111.01-64.09c11.66-6.73 26.57-2.74 33.3 8.92s2.74 26.57-8.92 33.31l-111.01 64.09c-3.83 2.21-8.02 3.27-12.16 3.27z"/><path d="m1294.6 505.46c-4.14 0-8.33-1.05-12.17-3.27-11.66-6.73-15.66-21.64-8.92-33.31l64.09-111.01c6.73-11.66 21.64-15.66 33.3-8.92 11.66 6.73 15.66 21.64 8.92 33.31l-64.09 111.01c-4.5 7.82-12.7 12.19-21.13 12.19z"/></g><path d="m1024 1069.81c-6.63 0-12.96-2.7-17.56-7.47-12.99-13.49-27.53-26.08-43.21-37.43-19.31-13.99-40.5-26.22-63.01-36.34-12.28-5.52-17.76-19.96-12.23-32.24 5.52-12.28 19.96-17.75 32.24-12.23 25.53 11.49 49.62 25.39 71.6 41.32 11.26 8.15 22.02 16.87 32.17 26.07 10.15-9.2 20.92-17.93 32.18-26.08 21.97-15.92 46.06-29.82 71.59-41.31 12.28-5.53 26.71-.05 32.24 12.23 5.52 12.28.05 26.71-12.23 32.24-22.51 10.13-43.7 22.35-63 36.33-15.69 11.36-30.23 23.95-43.22 37.44-4.6 4.77-10.93 7.47-17.56 7.47z" fill="#e6bd52"/></svg>