<svg height="100" width="100" xmlns="http://www.w3.org/2000/svg" xmlns:xlink="http://www.w3.org/1999/xlink"><linearGradient id="a" gradientUnits="userSpaceOnUse" spreadMethod="repeat" x2="35"><stop offset="0" stop-color="#bbcde1"/><stop offset=".5" stop-color="#002850"/><stop offset="1" stop-color="#bbcde1"/></linearGradient><path d="m41 81v8s-6 0-7 0c-4 0-6 6-6 6h44s-1-6-4-6c-2 0-7 0-7 0v-8" fill="#111" stroke="#666"/><path d="m4.7 74c0-16 0-45 0-57 0-4 0-8.8 5.2-8.8h81.1c5 0 5 4.8 5 12.8v53c0 1 0 5-8 5-5 0-74 0-78.1 0-5.2 0-5.2-5-5.2-5z" fill="#fff" stroke="#000" stroke-width="4"/><path d="m7.8 12h85.2v63h-85.2z" fill="#888" stroke="#fff"/><path d="m8 12h84v63h-84z" fill="url(#a)" fill-opacity=".8" fill-rule="evenodd"/></svg>